<?xml version="1.0" encoding="UTF-8"?>
<svg version="1.1" xmlns="http://www.w3.org/2000/svg" width="1563" height="1563">
<path d="M0 0 C12.16958487 10.08562813 21.96209238 22.09002212 31.33203125 34.75390625 C33.01854258 37.02496952 34.72605131 39.27893716 36.4375 41.53125 C50.63125507 60.3311229 62.75657475 80.3204285 74 101 C74.81090088 102.4840332 74.81090088 102.4840332 75.63818359 103.99804688 C91.82377477 133.81888822 105.67190017 165.02361532 117 197 C117.41121094 198.1329248 117.82242187 199.26584961 118.24609375 200.43310547 C142.85111692 268.50891918 151.93345919 341.88426409 156.6875 413.75 C156.74843842 414.66358276 156.80937683 415.57716553 156.87216187 416.51843262 C158.83222174 446.34317302 159.20616712 476.12310738 159.1875 506 C159.18723312 506.95887871 159.18696625 507.91775742 159.18669128 508.90569305 C159.17574035 540.31109306 158.83385496 571.63956735 157 603 C156.9250531 604.28203308 156.8501062 605.56406616 156.77288818 606.88494873 C156.19047157 616.77933752 155.57531882 626.67153492 154.9375 636.5625 C154.89341507 637.24711555 154.84933014 637.93173111 154.8039093 638.63709259 C154.51187344 643.15578731 154.20973275 647.67372508 153.90234375 652.19140625 C153.82634445 653.34487045 153.75034515 654.49833466 153.67204285 655.68675232 C153.59843033 656.74217728 153.52481781 657.79760223 153.44897461 658.88500977 C153.38616806 659.80516373 153.32336151 660.72531769 153.25865173 661.6733551 C153 664 153 664 152 667 C153.175625 667.33 154.35125 667.66 155.5625 668 C174.54235531 674.45432968 192.08593127 687.56818894 206.32421875 701.40625 C208.50954039 703.52457637 210.72442725 705.49466154 213.0625 707.4375 C252.34261425 741.70488001 277.8633838 795.70715493 288 846 C288.16516113 846.78697266 288.33032227 847.57394531 288.50048828 848.38476562 C291.26959647 862.16444359 291.25993155 876.00289072 291.25 890 C291.24940582 890.9418515 291.24881165 891.883703 291.24819946 892.85409546 C291.24166095 895.56952921 291.22515549 898.28465092 291.203125 901 C291.1987291 901.81793533 291.19433319 902.63587067 291.18980408 903.47859192 C291.13725857 907.75591918 290.84216671 911.78747875 290 916 C285.13642364 914.2919583 280.91066532 911.68116258 276.5 909.0625 C232.42318312 883.36373307 180.30724273 861.58100381 129 857 C128.96261719 857.73323486 128.92523437 858.46646973 128.88671875 859.22192383 C128.33045624 868.08054059 127.00239869 876.67304976 125.41601562 885.3972168 C124.99387376 887.72122667 124.58220963 890.04692599 124.171875 892.37304688 C123.90684845 893.85687785 123.64124563 895.34060603 123.375 896.82421875 C123.25205566 897.51682297 123.12911133 898.20942719 123.00244141 898.92301941 C122.11619691 903.76760618 122.11619691 903.76760618 121 906 C118.05859375 906.4140625 118.05859375 906.4140625 114.4375 906.625 C113.23996094 906.69976563 112.04242187 906.77453125 110.80859375 906.8515625 C109.88175781 906.90054688 108.95492188 906.94953125 108 907 C99.07920831 926.74933452 90.54052668 946.65803904 82.03637695 966.58959961 C81.5869725 967.64183716 81.13756805 968.69407471 80.67454529 969.77819824 C79.82246689 971.77364435 78.9714714 973.76955333 78.12171936 975.76599121 C77.73978928 976.66039917 77.35785919 977.55480713 76.96435547 978.47631836 C76.63192841 979.25647812 76.29950134 980.03663788 75.95700073 980.84043884 C75.64119049 981.55309402 75.32538025 982.26574921 75 983 C74.55855148 984.11109886 74.55855148 984.11109886 74.10818481 985.24464417 C73.55963333 986.1135453 73.55963333 986.1135453 73 987 C70.17482275 987.46588547 67.70920439 987.69615501 64.875 987.75 C63.74384766 987.79447266 63.74384766 987.79447266 62.58984375 987.83984375 C60.72714047 987.91057932 58.86356245 987.95754983 57 988 C57.54527344 988.81339844 58.09054687 989.62679687 58.65234375 990.46484375 C82.7944234 1026.95089249 94.72745623 1068.6490984 85.86230469 1112.20654297 C82.85307205 1125.87892603 78.35133802 1139.50220582 72 1152 C68.58983079 1150.86327693 68.16232785 1150.16865599 66.1875 1147.3125 C61.29604864 1140.3333519 61.29604864 1140.3333519 54.1875 1136.0625 C53.465625 1136.041875 52.74375 1136.02125 52 1136 C50.20654209 1137.79345791 50.37852768 1140.52627185 50.01953125 1142.95703125 C49.82834717 1144.20508545 49.63716309 1145.45313965 49.44018555 1146.73901367 C49.33846039 1147.40371674 49.23673523 1148.0684198 49.13192749 1148.75326538 C43.33855455 1186.1010657 28.56414889 1220.76965153 3 1249 C2.01 1249.66 1.02 1250.32 0 1251 C-29.18290595 1220.89728899 -42.96252957 1180.15690278 -45 1139 C-47.97 1145.435 -47.97 1145.435 -51 1152 C-51.66 1152 -52.32 1152 -53 1152 C-54.81028349 1149.85143122 -56.47922259 1147.70819983 -58.125 1145.4375 C-58.61637451 1144.76001709 -59.10774902 1144.08253418 -59.61401367 1143.38452148 C-78.51458441 1116.77106518 -87.7619313 1082.30194073 -82.6640625 1049.86230469 C-78.73675114 1027.1500219 -68.67650044 1006.43354407 -55 988 C-60.61 987.67 -66.22 987.34 -72 987 C-77.93874988 973.24226602 -83.87490275 959.48341723 -89.80667114 945.72267151 C-92.27016465 940.00856777 -94.7360071 934.29550571 -97.20837402 928.5852356 C-98.08643624 926.5563762 -98.96302106 924.52688722 -99.83886719 922.49707031 C-100.83931679 920.17880025 -101.84243779 917.86168061 -102.84863281 915.54589844 C-103.49203613 914.05171387 -103.49203613 914.05171387 -104.1484375 912.52734375 C-104.51114746 911.68937256 -104.87385742 910.85140137 -105.24755859 909.98803711 C-106 908 -106 908 -106 906 C-110.62 906 -115.24 906 -120 906 C-122.27043242 896.56538788 -124.11019869 887.13590888 -125.6875 877.5625 C-125.91446842 876.22717185 -126.14168108 874.8918852 -126.36914062 873.55664062 C-126.58119141 872.28111328 -126.79324219 871.00558594 -127.01171875 869.69140625 C-127.20209717 868.54873291 -127.39247559 867.40605957 -127.58862305 866.22875977 C-127.98581104 863.11136439 -128.07508467 860.1384204 -128 857 C-181.03985042 863.75591391 -237.56455938 882.71558524 -281.67675781 913.3972168 C-283.27734375 914.48046875 -283.27734375 914.48046875 -286 916 C-286.99 915.67 -287.98 915.34 -289 915 C-296.53925592 848.73250967 -274.27786507 782.96777555 -233.18701172 731.07543945 C-228.09016724 724.76587273 -222.61579686 718.84706513 -217 713 C-216.43297363 712.4004248 -215.86594727 711.80084961 -215.28173828 711.18310547 C-198.83369998 693.84061191 -175.09797723 672.45018442 -151 667 C-151.12697266 666.17242188 -151.25394531 665.34484375 -151.38476562 664.4921875 C-153.03762724 653.0273946 -153.82217207 641.55876801 -154.5 630 C-154.56281158 628.94001801 -154.62562317 627.88003601 -154.69033813 626.78793335 C-155.15581792 618.8601093 -155.58808766 610.93077908 -156 603 C-156.08311432 601.40070648 -156.08311432 601.40070648 -156.16790771 599.769104 C-159.20127574 540.38768994 -159.73749291 480.36003537 -156 421 C-155.93683594 419.98877075 -155.87367188 418.9775415 -155.80859375 417.93566895 C-151.48616123 349.68520109 -142.67488819 281.38484769 -122 216 C-121.69126953 215.0095166 -121.38253906 214.0190332 -121.06445312 212.99853516 C-106.43519725 166.31945602 -85.17619183 120.85240741 -60 79 C-59.030701 77.36621101 -58.06192122 75.73211381 -57.09375 74.09765625 C-43.99942453 52.15285969 -28.35692165 32.12245895 -11.8125 12.6875 C-11.32539551 12.11265869 -10.83829102 11.53781738 -10.33642578 10.94555664 C-7.05439874 7.11282035 -3.60546344 3.53068345 0 0 Z " fill="#E21F1E" transform="translate(781,156)"/>
<path d="M0 0 C1.24534232 0.00092179 2.49068464 0.00184359 3.77376461 0.00279331 C4.46473938 0.00193889 5.15571416 0.00108446 5.86762756 0.00020415 C8.20004874 -0.00145264 10.53239917 0.00407393 12.8648138 0.00952244 C14.52996475 0.00980429 16.19511582 0.00964661 17.86026669 0.00907993 C22.3951976 0.00879189 26.9301023 0.01468967 31.46502709 0.02165389 C36.19895023 0.02788635 40.9328739 0.02849114 45.6668005 0.0296793 C54.63763754 0.03279293 63.60846245 0.04100675 72.57929415 0.05102879 C82.78952046 0.06218893 92.99974733 0.06770012 103.20997822 0.07272422 C124.21919777 0.08318934 145.22840639 0.1007894 166.23761654 0.12304783 C166.71879878 2.18347822 167.19841259 4.24427493 167.67737484 6.30522251 C168.07825754 8.02657177 168.07825754 8.02657177 168.48723888 9.78269577 C169.48290611 14.21496935 170.29062179 18.6622548 171.03449154 23.14257908 C171.18894741 24.05994343 171.34340328 24.97730778 171.50253963 25.92247105 C172.00424639 28.92576913 172.4972092 31.93038489 172.98761654 34.93554783 C173.15892086 35.97997044 173.33022518 37.02439304 173.50672054 38.10046482 C176.42116327 55.97773397 178.88085349 73.89859739 181.11261654 91.87304783 C181.33008541 93.61915852 181.33008541 93.61915852 181.55194759 95.40054417 C182.96832931 106.84206921 184.3073972 118.28956134 185.43292904 129.76367283 C185.51638577 130.59743443 185.59984249 131.43119602 185.68582821 132.29022312 C186.15358981 137.25823984 186.31110448 142.13300254 186.23761654 147.12304783 C185.20636654 146.31867283 184.17511654 145.51429783 183.11261654 144.68554783 C162.57453338 129.34559899 142.00917534 120.94874868 116.17511654 120.93554783 C114.9408392 120.92330173 113.70656185 120.91105564 112.43488216 120.89843845 C85.66106439 120.85640734 61.79163273 129.28555977 42.17511654 147.68554783 C20.88701754 169.81841266 15.73320995 196.68886409 16.02667904 226.42773533 C16.54110888 249.20872118 25.35047771 270.93228984 40.23761654 288.12304783 C40.85249935 288.88230564 41.46738216 289.64156345 42.10089779 290.42382908 C56.72384237 307.95319743 79.74763979 319.08535839 102.23761654 322.12304783 C106.82467889 322.4150922 111.39222226 322.4572067 115.98761654 322.43554783 C117.23317318 322.42990818 118.47872982 322.42426853 119.7620306 322.41845798 C128.32870565 322.30505901 136.05521724 321.8302357 144.23761654 319.12304783 C144.87554134 318.91373631 145.51346615 318.70442478 146.17072201 318.48877048 C163.4938116 312.6952733 178.26941691 303.89176425 190.84699154 290.52148533 C191.30589779 290.06000095 191.76480404 289.59851658 192.23761654 289.12304783 C192.56761654 289.12304783 192.89761654 289.12304783 193.23761654 289.12304783 C194.10544012 293.61694059 194.36922153 297.8744182 194.38288021 302.44848728 C194.38618501 303.16274655 194.3894898 303.87700583 194.39289474 304.61290932 C194.40227422 306.98739798 194.40420018 309.36182318 194.40558529 311.73632908 C194.40962249 313.43291362 194.41385898 315.12949769 194.4182806 316.82608128 C194.42988794 322.36258003 194.42817451 327.89904076 194.42511654 333.43554783 C194.42499695 334.38341789 194.42487736 335.33128796 194.42475414 336.30788136 C194.41852389 375.27212612 193.72394504 414.18745327 192.23761654 453.12304783 C192.21207699 453.79233311 192.18653744 454.46161839 192.16022396 455.15118504 C189.0535133 536.01195978 182.61208168 616.67765259 171.23761654 724.12304783 C152.59183064 724.29509796 133.94599578 724.46144924 115.30011654 724.62304783 C114.6145216 724.62899637 113.92892666 724.63494491 113.22255611 724.6410737 C79.2279178 724.93571465 45.23386968 725.22902825 11.23761654 725.18554783 C10.22581263 725.1842638 10.22581263 725.1842638 9.19356823 725.18295383 C1.54155027 725.1724472 -6.11042081 725.1540636 -13.76238346 725.12304783 C-16.06263677 715.70110631 -17.87348812 706.25345791 -19.44988346 696.68554783 C-19.67685188 695.35021968 -19.90406454 694.01493303 -20.13152409 692.67968845 C-20.34357487 691.40416111 -20.55562565 690.12863377 -20.77410221 688.81445408 C-20.96448063 687.67178074 -21.15485905 686.5291074 -21.35100651 685.35180759 C-21.7481945 682.23441221 -21.83746813 679.26146823 -21.76238346 676.12304783 C-74.80223388 682.87896174 -131.32694284 701.83863307 -175.43914127 732.52026463 C-177.03972721 733.60351658 -177.03972721 733.60351658 -179.76238346 735.12304783 C-180.75238346 734.79304783 -181.74238346 734.46304783 -182.76238346 734.12304783 C-190.30163938 667.8555575 -168.04024853 602.09082338 -126.94939518 550.19848728 C-121.8525507 543.88892056 -116.37818032 537.97011296 -110.76238346 532.12304783 C-110.19535709 531.52347263 -109.62833073 530.92389744 -109.04412174 530.3061533 C-92.59608344 512.96365974 -68.86036069 491.57323224 -44.76238346 486.12304783 C-44.88935612 485.2954697 -45.01632877 484.46789158 -45.14714909 483.61523533 C-46.8000107 472.15044243 -47.58455553 460.68181584 -48.26238346 449.12304783 C-48.35660084 447.53307484 -48.35660084 447.53307484 -48.4527216 445.91098118 C-48.91820138 437.98315712 -49.35047112 430.05382691 -49.76238346 422.12304783 C-49.81779301 421.05685215 -49.87320255 419.99065647 -49.93029118 418.89215183 C-52.9636592 359.51073777 -53.49987637 299.4830832 -49.76238346 240.12304783 C-49.6992194 239.11181858 -49.63605534 238.10058933 -49.57097721 237.05871677 C-47.68600417 207.2953158 -22.69630967 1.01098622 0 0 Z " fill="#FE5757" transform="translate(674.7623834609985,336.8769521713257)"/>
<path d="M0 0 C1.96007032 2.44780166 3.9183678 4.89641628 5.859375 7.359375 C7.88656176 9.92267727 9.93821174 12.46445525 12 15 C12.928125 16.15435547 12.928125 16.15435547 13.875 17.33203125 C28.57500064 34.81890701 51.47839538 45.95803863 74 49 C78.58706235 49.29204437 83.15460572 49.33415887 87.75 49.3125 C88.99555664 49.30686035 90.24111328 49.3012207 91.52441406 49.29541016 C100.09108911 49.18201118 107.81760071 48.70718787 116 46 C116.95688721 45.68603271 116.95688721 45.68603271 117.93310547 45.36572266 C135.25619506 39.57222548 150.03180037 30.76871642 162.609375 17.3984375 C163.06828125 16.93695312 163.5271875 16.47546875 164 16 C164.33 16 164.66 16 165 16 C165.86782358 20.49389276 166.13160499 24.75137037 166.14526367 29.32543945 C166.14856847 30.03969872 166.15187326 30.753958 166.15527821 31.48986149 C166.16465768 33.86435015 166.16658364 36.23877535 166.16796875 38.61328125 C166.17200595 40.30986579 166.17624244 42.00644987 166.18066406 43.70303345 C166.19227141 49.2395322 166.19055797 54.77599294 166.1875 60.3125 C166.18732061 61.7343051 166.18732061 61.7343051 166.1871376 63.18483353 C166.18090735 102.14907829 165.4863285 141.06440544 164 180 C163.96169067 181.00392792 163.96169067 181.00392792 163.92260742 182.02813721 C161.0853592 255.8754033 155.60746202 329.63330263 148.0625 403.14453125 C147.98843933 403.86617651 147.91437866 404.58782177 147.83807373 405.33133507 C146.27119461 420.55911464 144.62623936 435.77839957 143 451 C104.72 451.33 66.44 451.66 27 452 C24.51867665 416.85851437 22.03847723 381.7169502 19.56061591 346.57522034 C19.26535689 342.38779257 18.97008483 338.20036573 18.67480469 334.01293945 C18.61604163 333.17960579 18.55727858 332.34627214 18.49673483 331.48768594 C17.55615978 318.14959314 16.61453891 304.81157438 15.67250302 291.47358469 C14.69954197 277.69738862 13.72777069 263.92110896 12.75701308 250.14475745 C12.2144027 242.44484144 11.67130738 234.7449604 11.12683868 227.04517555 C9.04435761 197.59094325 6.98104479 168.13562322 5.03662062 138.67190492 C4.86692385 136.10111801 4.69671051 133.53036514 4.52590609 130.95965159 C3.02463403 108.3189052 1.85123692 85.67422956 1 63 C0.97077454 62.23828491 0.94154907 61.47656982 0.91143799 60.69177246 C0.13591602 40.45616126 -0.14408138 20.24897613 0 0 Z " fill="#F23D3D" transform="translate(703,610)"/>
<path d="M0 0 C7.47262015 -0.08532689 14.94416247 -0.07723936 22.41712952 -0.05964279 C24.78751088 -0.05777227 27.15789264 -0.05635137 29.52827454 -0.05535507 C35.6962546 -0.05157975 41.86421022 -0.04179349 48.03218079 -0.03065109 C54.35450409 -0.02032835 60.67683143 -0.01583444 66.99916077 -0.01081467 C79.35203595 -0.00016554 91.70489318 0.01684914 104.05775452 0.03801346 C104.05775452 0.36801346 104.05775452 0.69801346 104.05775452 1.03801346 C96.13775452 1.53301346 96.13775452 1.53301346 88.05775452 2.03801346 C90.00681702 4.97707596 90.00681702 4.97707596 91.99525452 7.97551346 C114.94173497 43.36611172 125.42465687 84.45863324 116.9200592 126.24455643 C113.91082657 139.91693949 109.40909254 153.54021928 103.05775452 166.03801346 C99.64758531 164.90129039 99.22008237 164.20666944 97.24525452 161.35051346 C92.35380316 154.37136536 92.35380316 154.37136536 85.24525452 150.10051346 C84.52337952 150.07988846 83.80150452 150.05926346 83.05775452 150.03801346 C81.26429661 151.83147136 81.43628219 154.56428531 81.07728577 156.99504471 C80.88610168 158.24309891 80.6949176 159.49115311 80.49794006 160.77702713 C80.34535233 161.77408173 80.34535233 161.77408173 80.18968201 162.79127884 C74.39630907 200.13907916 59.62190341 234.80766499 34.05775452 263.03801346 C33.06775452 263.69801346 32.07775452 264.35801346 31.05775452 265.03801346 C1.87484857 234.93530245 -11.90477505 194.19491624 -13.94224548 153.03801346 C-16.91224548 159.47301346 -16.91224548 159.47301346 -19.94224548 166.03801346 C-20.60224548 166.03801346 -21.26224548 166.03801346 -21.94224548 166.03801346 C-23.75252897 163.88944467 -25.42146807 161.74621329 -27.06724548 159.47551346 C-27.55862 158.79803055 -28.04999451 158.12054764 -28.55625916 157.42253494 C-47.45682989 130.80907864 -56.70417678 96.33995419 -51.60630798 63.90031815 C-48.48864158 45.87034431 -41.52984393 29.63478189 -32.10191345 14.03117752 C-31.05681943 12.23493593 -30.13358747 10.36912015 -29.22740173 8.49895096 C-27.38585206 5.14516402 -26.00150901 3.34738401 -22.94224548 1.03801346 C-19.90085096 0.53666901 -17.28751477 0.30425595 -14.23814392 0.26677322 C-13.36367489 0.24010102 -12.48920586 0.21342882 -11.58823776 0.18594837 C-7.72586556 0.08244972 -3.86334616 0.04991397 0 0 Z " fill="#FFAD45" transform="translate(749.9422454833984,1141.961986541748)"/>
<path d="M0 0 C20.44478463 5.73888691 39.28605361 19.79079518 54.32421875 34.40625 C56.50954039 36.52457637 58.72442725 38.49466154 61.0625 40.4375 C100.34261425 74.70488001 125.8633838 128.70715493 136 179 C136.16516113 179.78697266 136.33032227 180.57394531 136.50048828 181.38476562 C139.26959647 195.16444359 139.25993155 209.00289072 139.25 223 C139.24940582 223.9418515 139.24881165 224.883703 139.24819946 225.85409546 C139.24166095 228.56952921 139.22515549 231.28465092 139.203125 234 C139.1987291 234.81793533 139.19433319 235.63587067 139.18980408 236.47859192 C139.13725857 240.75591918 138.84216671 244.78747875 138 249 C133.13642364 247.2919583 128.91066532 244.68116258 124.5 242.0625 C78.6620205 215.33689603 29.87149715 199.35484067 -22 189 C-22.24654127 181.85030326 -21.2891534 175.04071388 -20.2421875 167.9765625 C-19.96084403 166.025479 -19.67951276 164.0743937 -19.39868641 162.1232357 C-19.09978571 160.05162595 -18.79847961 157.98037692 -18.49673462 155.90917969 C-17.43687601 148.62207949 -16.40720207 141.33067295 -15.37890625 134.0390625 C-15.27543821 133.30571938 -15.17197018 132.57237625 -15.06536674 131.81681061 C-10.08887199 96.49754549 -6.28774357 61.09690708 -3.10372162 25.57618046 C-2.91949726 23.52160694 -2.73406155 21.46714587 -2.54837036 19.41270447 C-2.32054298 16.88253809 -2.09592663 14.35207992 -1.87496948 11.82130432 C-1.77402985 10.69957321 -1.67309021 9.5778421 -1.5690918 8.42211914 C-1.48282028 7.44263809 -1.39654877 6.46315704 -1.30766296 5.45399475 C-1 3 -1 3 0 0 Z " fill="#091F3E" transform="translate(933,823)"/>
<path d="M0 0 C1.2180009 2.43600179 1.31087041 4.33993173 1.55322266 7.05810547 C1.65097488 8.12801727 1.74872711 9.19792908 1.84944153 10.30026245 C2.00517891 12.06589035 2.00517891 12.06589035 2.1640625 13.8671875 C2.39718019 16.41930394 2.63067781 18.97138569 2.86450195 21.5234375 C2.98910545 22.8955041 3.11366727 24.26757448 3.2381897 25.63964844 C8.18649979 79.9897106 15.0017254 134.02190067 23 188 C22.30191727 188.1380455 21.60383453 188.276091 20.88459778 188.4183197 C17.65842524 189.05723847 14.43272845 189.69852965 11.20703125 190.33984375 C9.5606366 190.66535217 9.5606366 190.66535217 7.88098145 190.99743652 C-30.16230157 198.57239544 -67.7204896 210.89908429 -102.10498047 229.00537109 C-104.14712693 230.07722174 -106.19992156 231.12681002 -108.25390625 232.17578125 C-116.00279784 236.16918123 -123.46736005 240.35052469 -130.62353516 245.34545898 C-132.03477269 246.30437679 -133.51370654 247.16211785 -135 248 C-135.99 247.67 -136.98 247.34 -138 247 C-145.53925592 180.73250967 -123.27786507 114.96777555 -82.18701172 63.07543945 C-77.09016724 56.76587273 -71.61579686 50.84706513 -66 45 C-65.43297363 44.4004248 -64.86594727 43.80084961 -64.28173828 43.18310547 C-48.90505146 26.9702242 -31.29915338 13.59974556 -11.375 3.4375 C-10.69945068 3.09033936 -10.02390137 2.74317871 -9.32788086 2.38549805 C-5.8919472 0.69035628 -3.9094275 0 0 0 Z " fill="#22446D" transform="translate(630,824)"/>
<path d="M0 0 C12.16958487 10.08562813 21.96209238 22.09002212 31.33203125 34.75390625 C33.01854258 37.02496952 34.72605131 39.27893716 36.4375 41.53125 C50.63125507 60.3311229 62.75657475 80.3204285 74 101 C74.54060059 101.98935547 75.08120117 102.97871094 75.63818359 103.99804688 C110 167.30733623 110 167.30733623 110 181 C37.73 181 -34.54 181 -109 181 C-88.54004369 119.62013108 -53.56275649 61.73209874 -11.8125 12.6875 C-11.32539551 12.11265869 -10.83829102 11.53781738 -10.33642578 10.94555664 C-7.05439874 7.11282035 -3.60546344 3.53068345 0 0 Z " fill="#19355E" transform="translate(781,156)"/>
<path d="M0 0 C36.3 0 72.6 0 110 0 C111.77696145 7.70016627 113.50691616 15.25011474 114.796875 23.01953125 C115.02855881 24.39557777 115.02855881 24.39557777 115.2649231 25.79942322 C115.76662985 28.8027213 116.25959266 31.80733706 116.75 34.8125 C117.00695648 36.37913391 117.00695648 36.37913391 117.269104 37.97741699 C120.18354673 55.85468614 122.64323696 73.77554956 124.875 91.75 C125.01997925 92.91407379 125.1649585 94.07814758 125.31433105 95.27749634 C126.73071277 106.71902138 128.06978066 118.16651351 129.1953125 129.640625 C129.32049759 130.8912674 129.32049759 130.8912674 129.44821167 132.16717529 C129.91597327 137.13519201 130.07348794 142.00995471 130 147 C128.96875 146.195625 127.9375 145.39125 126.875 144.5625 C106.33691684 129.22255116 85.7715588 120.82570085 59.9375 120.8125 C58.70322266 120.80025391 57.46894531 120.78800781 56.19726562 120.77539062 C29.38472585 120.73329873 4.82695385 129.12673698 -14.375 148.1875 C-15.92085005 149.78763575 -17.46258982 151.39175352 -19 153 C-20.66458963 154.66874111 -22.33100107 156.33566887 -24 158 C-23.42723848 145.03745058 -22.30528896 132.20008781 -20.8125 119.3125 C-20.70362457 118.36524048 -20.59474915 117.41798096 -20.48257446 116.4420166 C-16.96723166 86.04559059 -12.0918664 56.00963268 -5.9296875 26.0390625 C-5.79439133 25.37578949 -5.65909515 24.71251648 -5.5196991 24.02914429 C-3.84187413 15.97820201 -1.88523832 8.01226286 0 0 Z " fill="#F13C3C" transform="translate(731,337)"/>
<path d="M0 0 C11.55 0 23.1 0 35 0 C35 0.33 35 0.66 35 1 C27.08 1.495 27.08 1.495 19 2 C20.9490625 4.9390625 20.9490625 4.9390625 22.9375 7.9375 C45.88398045 43.32809826 56.36690235 84.42061978 47.86230469 126.20654297 C44.85307205 139.87892603 40.35133802 153.50220582 34 166 C30.58983079 164.86327693 30.16232785 164.16865599 28.1875 161.3125 C23.29604864 154.3333519 23.29604864 154.3333519 16.1875 150.0625 C15.465625 150.041875 14.74375 150.02125 14 150 C12.20654209 151.79345791 12.37852768 154.52627185 12.01953125 156.95703125 C11.82834717 158.20508545 11.63716309 159.45313965 11.44018555 160.73901367 C11.28759781 161.73606827 11.28759781 161.73606827 11.13192749 162.75326538 C5.33855455 200.1010657 -9.43585111 234.76965153 -35 263 C-35.99 263.66 -36.98 264.32 -38 265 C-67.18290595 234.89728899 -80.96252957 194.15690278 -83 153 C-85.97 159.435 -85.97 159.435 -89 166 C-89.66 166 -90.32 166 -91 166 C-92.81028349 163.85143122 -94.47922259 161.70819983 -96.125 159.4375 C-96.61637451 158.76001709 -97.10774902 158.08253418 -97.61401367 157.38452148 C-116.51458441 130.77106518 -125.7619313 96.30194073 -120.6640625 63.86230469 C-117.54687988 45.83512867 -110.58957424 29.59952722 -101.1640625 13.99755859 C-100.10878022 12.18666941 -99.17166234 10.30819429 -98.25 8.42578125 C-96.39473034 5.07169421 -95.18862924 3.15197764 -92 1 C-85.72283727 -0.26100605 -79.31951387 0.36932271 -73 1 C-73.81791016 2.65708984 -73.81791016 2.65708984 -74.65234375 4.34765625 C-83.00125881 21.48264146 -91.12446706 39.24868407 -95 58 C-95.14663086 58.68932617 -95.29326172 59.37865234 -95.44433594 60.08886719 C-98.69577178 75.95447565 -98.31474226 91.8916523 -98 108 C-97.56655273 107.14768799 -97.13310547 106.29537598 -96.68652344 105.41723633 C-95.06712973 102.23669782 -93.44019777 99.0600656 -91.81103516 95.88452148 C-91.10879709 94.51316978 -90.40857019 93.14078617 -89.71044922 91.76733398 C-88.70294854 89.78610761 -87.68812123 87.80878308 -86.671875 85.83203125 C-86.36441345 85.22349808 -86.0569519 84.6149649 -85.74017334 83.98799133 C-83.8371073 80.30742073 -81.68963874 77.14916196 -79 74 C-77.63844024 78.83232147 -76.73226462 83.57327636 -76.0625 88.55078125 C-69.81009035 134.92256764 -52.67554727 179.49030921 -36 223 C-34.16194137 220.24291205 -33.48549574 218.60645663 -32.67480469 215.48217773 C-32.43384064 214.5642897 -32.19287659 213.64640167 -31.9446106 212.70069885 C-31.68960785 211.70505417 -31.4346051 210.70940948 -31.171875 209.68359375 C-30.90228973 208.64867294 -30.63270447 207.61375214 -30.35494995 206.54747009 C-29.47995607 203.17916688 -28.61415972 199.80859797 -27.75 196.4375 C-27.45454285 195.28977112 -27.15908569 194.14204224 -26.85467529 192.95953369 C-24.88630188 185.31058715 -22.93763788 177.6567841 -21 170 C-20.7123175 168.8682132 -20.7123175 168.8682132 -20.41882324 167.71356201 C-13.51341119 140.52612666 -9.31028106 112.69613884 -5 85 C-0.59951404 88.40498898 2.67961074 91.93328386 6.0625 96.3125 C6.6196167 97.0336499 7.1767334 97.7547998 7.75073242 98.49780273 C14.76774304 107.92990614 19.87519517 118.45830303 25 129 C25.33 129 25.66 129 26 129 C27.57068094 120.90294647 28.3572616 113.1200876 28.3125 104.875 C28.30404053 103.19881592 28.30404053 103.19881592 28.29541016 101.48876953 C27.82332295 68.09210508 20.97942933 32.62312813 1.7265625 4.6328125 C0 2 0 2 0 0 Z " fill="#FE6C46" transform="translate(819,1142)"/>
<path d="M0 0 C21.73518355 -0.02358291 43.47036493 -0.04110172 65.20555878 -0.05181217 C75.30240817 -0.05692209 85.39924953 -0.06386074 95.49609375 -0.07543945 C104.31832654 -0.08555147 113.14055349 -0.09189172 121.96279192 -0.09408849 C126.61423499 -0.09536825 131.26566139 -0.09827286 135.917099 -0.10573006 C161.29363139 -0.14485836 186.63462123 0.24019323 212 1 C211.29975719 4.72872831 210.31263091 7.93186311 208.81030273 11.42260742 C208.35570175 12.48529343 207.90110077 13.54797943 207.432724 14.64286804 C206.93801102 15.78552628 206.44329803 16.92818451 205.93359375 18.10546875 C205.42127701 19.2986824 204.90896027 20.49189606 204.38111877 21.7212677 C203.01580963 24.90059631 201.6445303 28.07731722 200.27215576 31.25360107 C199.17582895 33.79379231 198.08384775 36.33583931 196.99207115 38.87798882 C192.13594273 50.18475398 187.25978053 61.48305417 182.28515625 72.73828125 C181.95978378 73.47773483 181.63441132 74.21718842 181.29917908 74.97904968 C179.11976403 79.88023597 179.11976403 79.88023597 178 81 C174.88248032 81.1256147 171.78609829 81.18616964 168.66723633 81.20532227 C167.68449738 81.21522186 166.70175842 81.22512146 165.6892395 81.23532104 C162.40352848 81.26715794 159.11780408 81.29183806 155.83203125 81.31640625 C153.5255245 81.33701457 151.2190212 81.35801195 148.91252136 81.37937927 C144.04057839 81.42349781 139.16862273 81.46435164 134.29663086 81.50268555 C128.17057503 81.55092535 122.04458584 81.60468493 115.91859627 81.66065407 C88.27864735 81.9122872 60.64110763 82.07373641 33 82 C31.53637002 78.60941312 30.07286769 75.21877115 28.609375 71.828125 C28.15283035 70.77050964 27.69628571 69.71289429 27.22590637 68.62322998 C24.72002139 62.81743806 22.21580505 57.0109346 19.71459961 51.203125 C13.30812634 36.32862795 13.30812634 36.32862795 6.83203125 21.484375 C6.25847525 20.17168655 5.68521546 18.85886862 5.11230469 17.54589844 C4.10379064 15.23845388 3.08789167 12.9342183 2.06347656 10.63378906 C1.63131836 9.64088867 1.19916016 8.64798828 0.75390625 7.625 C0.38595947 6.79226563 0.0180127 5.95953125 -0.36108398 5.1015625 C-1 3 -1 3 0 0 Z " fill="#1A355E" transform="translate(676,1061)"/>
<path d="M0 0 C14.0967362 12.1670677 22.15553491 27.61650423 24.125 46.125 C25.19556631 64.94912427 18.80510709 81.62401509 7 96.125 C-4.55977814 108.5478385 -20.63455226 116.30630194 -37.53515625 117.09375 C-57.55844873 117.63818998 -73.42554586 112.17199448 -88.6875 98.8125 C-101.30118974 86.08092531 -107.88255863 70.18046109 -108.0625 52.375 C-107.85704886 33.78621741 -101.59101585 17.44003427 -88.33203125 4.29296875 C-63.65958911 -18.84883444 -26.82296811 -20.80451821 0 0 Z " fill="#A0D8FF" transform="translate(823.6875,497.1875)"/>
<path d="M0 0 C9.61451068 8.44624501 17.00692809 16.9847707 23.37890625 28.08984375 C23.88164063 28.96511719 24.384375 29.84039062 24.90234375 30.7421875 C36.28675946 52.02759506 36.94604735 76.87898942 30.34765625 99.6484375 C25.49809065 114.34458731 18.11831489 125.22371643 7.37890625 136.08984375 C6.71117187 136.82976562 6.0434375 137.5696875 5.35546875 138.33203125 C-6.61763296 151.31552129 -25.47649913 159.11335163 -42.62109375 162.08984375 C-43.32234375 162.22003906 -44.02359375 162.35023438 -44.74609375 162.484375 C-67.71900872 166.07389296 -91.75255949 159.32887705 -110.62109375 146.08984375 C-114.9262789 142.73262477 -118.78683145 138.96773919 -122.62109375 135.08984375 C-123.43449219 134.28675781 -124.24789062 133.48367188 -125.0859375 132.65625 C-142.31982076 114.71533563 -148.69342746 90.38880508 -148.62109375 66.08984375 C-147.19556514 40.56232219 -134.42775459 17.96842676 -115.62109375 1.08984375 C-82.66850168 -26.03400611 -33.25847739 -27.18984645 0 0 Z M-108.4453125 30.078125 C-120.67718331 45.07099552 -124.01228714 63.25129833 -122.62109375 82.08984375 C-120.50152224 98.66451108 -110.79895919 113.72712278 -97.80859375 123.90234375 C-80.97452354 135.82914381 -64.18522046 139.0395978 -43.9375 136.65625 C-28.09743895 133.53476918 -13.25041672 124.20182596 -3.68359375 111.15234375 C7.51612882 93.58851084 11.42538293 76.65031987 7.37890625 56.08984375 C3.24556099 39.71467688 -5.71102135 25.93213377 -20.00390625 16.6484375 C-50.61975889 -1.58398818 -84.65258707 4.14558273 -108.4453125 30.078125 Z " fill="#0E2549" transform="translate(838.62109375,476.91015625)"/>
<path d="M0 0 C5.36035717 3.29218787 9.76644724 7.29453637 14.3125 11.625 C15.07014648 12.34502197 15.82779297 13.06504395 16.60839844 13.80688477 C54.75840911 50.32834122 80.60857625 100.44292666 91 152 C91.16516113 152.78697266 91.33032227 153.57394531 91.50048828 154.38476562 C94.26959647 168.16444359 94.25993155 182.00289072 94.25 196 C94.24940582 196.9418515 94.24881165 197.883703 94.24819946 198.85409546 C94.24166095 201.56952921 94.22515549 204.28465092 94.203125 207 C94.1987291 207.81793533 94.19433319 208.63587067 94.18980408 209.47859192 C94.13725857 213.75591918 93.84216671 217.78747875 93 222 C88.13664851 220.29203728 83.91011375 217.68179904 79.5 215.0625 C63.15228974 205.50251909 46.59715884 197.0187525 29 190 C29.66 189.67 30.32 189.34 31 189 C41.47082986 147.80104853 29.54375394 97.15146702 19 57 C18.64687744 55.63125732 18.64687744 55.63125732 18.28662109 54.23486328 C13.9745547 37.70478287 8.45515841 21.36905089 0.8125 6.05859375 C0 4 0 4 0 0 Z " fill="#10274B" transform="translate(978,850)"/>
<path d="M0 0 C1.2180009 2.43600179 1.31087041 4.33993173 1.55322266 7.05810547 C1.65097488 8.12801727 1.74872711 9.19792908 1.84944153 10.30026245 C2.00517891 12.06589035 2.00517891 12.06589035 2.1640625 13.8671875 C2.39718019 16.41930394 2.63067781 18.97138569 2.86450195 21.5234375 C2.98910545 22.8955041 3.11366727 24.26757448 3.2381897 25.63964844 C8.18649979 79.9897106 15.0017254 134.02190067 23 188 C22.30191727 188.1380455 21.60383453 188.276091 20.88459778 188.4183197 C17.65842524 189.05723847 14.43272845 189.69852965 11.20703125 190.33984375 C9.5606366 190.66535217 9.5606366 190.66535217 7.88098145 190.99743652 C-30.16230157 198.57239544 -67.7204896 210.89908429 -102.10498047 229.00537109 C-104.14712693 230.07722174 -106.19992156 231.12681002 -108.25390625 232.17578125 C-116.00279784 236.16918123 -123.46736005 240.35052469 -130.62353516 245.34545898 C-132.03477269 246.30437679 -133.51370654 247.16211785 -135 248 C-135.99 247.67 -136.98 247.34 -138 247 C-138 239.08 -138 231.16 -138 223 C-133.0809375 221.02 -133.0809375 221.02 -128.0625 219 C-100.41045528 207.69429316 -75.82169573 193.65512709 -54 173 C-53.05640625 172.12085938 -52.1128125 171.24171875 -51.140625 170.3359375 C-31.48960611 151.6469463 -18.02802489 128.07761142 -10.1875 102.25 C-9.99244873 101.61384766 -9.79739746 100.97769531 -9.59643555 100.32226562 C-6.4876808 89.47247844 -5.63285252 78.49176715 -5.6875 67.25 C-5.69595947 65.40921875 -5.69595947 65.40921875 -5.70458984 63.53125 C-5.9317439 46.4744543 -9.19171148 28.89112312 -16.24609375 13.234375 C-17.23495156 10.30366688 -17.18273768 8.86568457 -16 6 C-13.41796875 4.19921875 -13.41796875 4.19921875 -10.1875 2.6875 C-8.60001953 1.91986328 -8.60001953 1.91986328 -6.98046875 1.13671875 C-4 0 -4 0 0 0 Z " fill="#1B375F" transform="translate(630,824)"/>
<path d="M0 0 C0 2.86604488 -0.3844031 4.54862853 -1.26245117 7.23217773 C-1.54133682 8.09277298 -1.82022247 8.95336823 -2.1075592 9.84004211 C-2.57058693 11.24760017 -2.57058693 11.24760017 -3.04296875 12.68359375 C-3.70479302 14.72275308 -4.36640453 16.76198147 -5.02783203 18.80126953 C-5.55549164 20.42092621 -5.55549164 20.42092621 -6.09381104 22.07330322 C-17.27931482 56.48001023 -27.66637149 90.95625927 -36.4375 126.0625 C-36.72514221 127.21316956 -37.01278442 128.36383911 -37.30914307 129.54937744 C-41.48198661 146.30896185 -45.25229193 163.13531367 -49 180 C3.14 180 55.28 180 109 180 C109.33 179.34 109.66 178.68 110 178 C110 178.99 110 179.98 110 181 C37.73 181 -34.54 181 -109 181 C-88.54004369 119.62013108 -53.56275649 61.73209874 -11.8125 12.6875 C-11.32539551 12.11265869 -10.83829102 11.53781738 -10.33642578 10.94555664 C-7.05439874 7.11282035 -3.60546344 3.53068345 0 0 Z " fill="#23456E" transform="translate(781,156)"/>
<path d="M0 0 C4.24495716 1.61858079 6.94121584 4.79075753 9.9375 8.0625 C10.50670166 8.6810083 11.07590332 9.2995166 11.66235352 9.93676758 C17.64902258 16.55248563 23.0286949 23.58621414 28.33203125 30.75390625 C30.01854258 33.02496952 31.72605131 35.27893716 33.4375 37.53125 C47.63125507 56.3311229 59.75657475 76.3204285 71 97 C71.54060059 97.98935547 72.08120117 98.97871094 72.63818359 99.99804688 C80.6560689 114.77045049 87.80139954 129.86206026 94.6875 145.1875 C95.27862076 146.50269119 95.27862076 146.50269119 95.88168335 147.8444519 C97.01264119 150.36707549 98.13857954 152.89185542 99.26171875 155.41796875 C99.59550537 156.16592712 99.92929199 156.9138855 100.27319336 157.68450928 C106 170.64623526 106 170.64623526 106 176 C89.83 176 73.66 176 57 176 C52.54355401 158.17421603 52.54355401 158.17421603 50.9921875 151.35546875 C39.48442374 101.26319787 25.48194984 50.24781187 1.29296875 4.60546875 C0 2 0 2 0 0 Z " fill="#10284B" transform="translate(784,160)"/>
<path d="M0 0 C8.88951314 18.16552685 11.19027454 35.41979488 5.375 55.0625 C-0.86818019 72.44592736 -12.82512336 84.72570999 -28.875 93.3125 C-43.43680102 100.14649102 -61.72744427 101.70496013 -77.26171875 97.046875 C-85.15542848 94.02902306 -92.31730898 90.1638976 -99 85 C-97.41579763 81.1503265 -94.95718753 78.71341435 -92.02734375 75.796875 C-91.54423233 75.3142218 -91.06112091 74.8315686 -90.56336975 74.33428955 C-89.54615946 73.32008976 -88.52653039 72.30831081 -87.50463867 71.29882812 C-85.93410245 69.74664214 -84.37180962 68.18650796 -82.81054688 66.625 C-75.14751637 59 -75.14751637 59 -74 59 C-73.67 62.96 -73.34 66.92 -73 71 C-71.67242172 69.66575989 -71.67242172 69.66575989 -70.31802368 68.30456543 C-61.99451672 59.94059252 -53.66579252 51.58184674 -45.33187294 43.2282486 C-41.04704146 38.93296025 -36.76409819 34.63582314 -32.48535156 30.33447266 C-28.35947575 26.18693625 -24.22879605 22.04424178 -20.09467697 17.90492249 C-18.5148082 16.32134573 -16.93670665 14.73600393 -15.36037064 13.14891052 C-13.15971402 10.93382922 -10.95297314 8.72499141 -8.74462891 6.51757812 C-8.08791702 5.85367569 -7.43120514 5.18977325 -6.7545929 4.50575256 C-2.22810432 0 -2.22810432 0 0 0 Z " fill="#6EBEFF" transform="translate(839,515)"/>
<path d="M0 0 C1.6874269 0.00015917 3.37485866 0.00585622 5.06225586 0.01586914 C6.39189613 0.01799156 6.39189613 0.01799156 7.74839783 0.02015686 C10.59133215 0.02577324 13.43418892 0.03832848 16.27709961 0.05102539 C18.19962452 0.05603828 20.12215065 0.06060155 22.04467773 0.06469727 C26.7680151 0.07574798 31.49129419 0.09302356 36.21459961 0.11352539 C40.79364394 8.37780452 45.17850023 16.43987422 48.02709961 25.48852539 C48.31206299 26.36774658 48.59702637 27.24696777 48.890625 28.15283203 C52.02265836 38.15711146 54.49146166 48.57648138 54.21459961 59.11352539 C50.62400114 55.6685773 47.60550855 52.14043428 44.65209961 48.11352539 C41.9081231 44.38514136 39.13003168 40.70988604 36.21459961 37.11352539 C34.53519135 42.53877908 33.4991081 47.89594612 32.64233398 53.50537109 C32.49895096 54.42001633 32.35556793 55.33466156 32.20783997 56.27702332 C31.89879102 58.25136295 31.59168534 60.22600756 31.28633118 62.20092201 C30.80300534 65.32383757 30.31356594 68.44573903 29.8223877 71.56742859 C28.42750282 80.43891944 27.04266481 89.31196218 25.66430664 98.18603516 C24.81950436 103.62219787 23.96680832 109.0570744 23.10920715 114.49123192 C22.78396222 116.56286712 22.46184215 118.63499537 22.14286804 120.70760536 C21.69825595 123.59583508 21.24371059 126.48233626 20.78686523 129.36865234 C20.6569368 130.2294339 20.52700836 131.09021545 20.3931427 131.9770813 C19.44248662 137.88563838 19.44248662 137.88563838 17.21459961 140.11352539 C6.09790829 105.90203781 -1.28352454 72.43935025 -2.34790039 36.36352539 C-2.39123597 34.9728915 -2.43485417 33.5822664 -2.47875977 32.19165039 C-2.58373788 28.83235062 -2.68589622 25.472991 -2.78540039 22.11352539 C-3.07785645 22.59297607 -3.3703125 23.07242676 -3.67163086 23.56640625 C-4.99606297 25.73115139 -6.32811381 27.89110623 -7.66040039 30.05102539 C-8.1205957 30.80577148 -8.58079102 31.56051758 -9.05493164 32.33813477 C-9.4996582 33.05678711 -9.94438477 33.77543945 -10.40258789 34.51586914 C-11.01529541 35.51348267 -11.01529541 35.51348267 -11.64038086 36.53125 C-12.78540039 38.11352539 -12.78540039 38.11352539 -14.78540039 39.11352539 C-14.03273174 30.66566228 -12.91307158 22.59611082 -10.34790039 14.48852539 C-10.14269775 13.83883789 -9.93749512 13.18915039 -9.72607422 12.51977539 C-5.63099495 0.16887537 -5.63099495 0.16887537 0 0 Z " fill="#FFCD92" transform="translate(766.785400390625,1141.886474609375)"/>
<path d="M0 0 C16.5 0 33 0 50 0 C51.83478557 5.50435672 53.49117825 10.61605944 54.80932617 16.20043945 C54.96582138 16.85857132 55.12231659 17.51670319 55.28355408 18.19477844 C55.79086544 20.33331786 56.29216095 22.4732103 56.79296875 24.61328125 C57.14716955 26.11546793 57.50160995 27.61759813 57.85627747 29.11967468 C58.59433558 32.24980234 59.32937226 35.38061978 60.06225586 38.51196289 C61.00120651 42.52256073 61.94797972 46.53126471 62.89701366 50.53948689 C63.62854815 53.63308711 64.35585916 56.72766839 65.08190346 59.82256126 C65.42944273 61.30163935 65.77831717 62.78040439 66.12856102 64.25884438 C66.61630707 66.32042411 67.09832197 68.3832626 67.57885742 70.4465332 C67.85404709 71.61851761 68.12923676 72.79050201 68.4127655 73.9980011 C69 77 69 77 69 81 C69.66 81.33 70.32 81.66 71 82 C58.46 82 45.92 82 33 82 C31.55109375 78.64328125 30.1021875 75.2865625 28.609375 71.828125 C28.11510513 70.68311523 27.62083527 69.53810547 27.11158752 68.35839844 C24.64382525 62.64087669 22.17777347 56.92262511 19.71459961 51.203125 C13.30812634 36.32862795 13.30812634 36.32862795 6.83203125 21.484375 C6.25847525 20.17168655 5.68521546 18.85886862 5.11230469 17.54589844 C4.10379064 15.23845388 3.08789167 12.9342183 2.06347656 10.63378906 C1.63131836 9.64088867 1.19916016 8.64798828 0.75390625 7.625 C0.38595947 6.79226563 0.0180127 5.95953125 -0.36108398 5.1015625 C-1 3 -1 3 0 0 Z " fill="#23456D" transform="translate(676,1061)"/>
<path d="M0 0 C13.2 0 26.4 0 40 0 C39.20977109 3.95114454 38.37061454 6.79713489 36.81030273 10.42260742 C36.35570175 11.48529343 35.90110077 12.54797943 35.432724 13.64286804 C34.93801102 14.78552628 34.44329803 15.92818451 33.93359375 17.10546875 C33.42127701 18.2986824 32.90896027 19.49189606 32.38111877 20.7212677 C31.01580963 23.90059631 29.6445303 27.07731722 28.27215576 30.25360107 C27.17582895 32.79379231 26.08384775 35.33583931 24.99207115 37.87798882 C20.13594273 49.18475398 15.25978053 60.48305417 10.28515625 71.73828125 C9.95978378 72.47773483 9.63441132 73.21718842 9.29917908 73.97904968 C7.11976403 78.88023597 7.11976403 78.88023597 6 80 C3.04294679 80.08868299 0.10934944 80.11520296 -2.84765625 80.09765625 C-4.17729652 80.09553383 -4.17729652 80.09553383 -5.53379822 80.09336853 C-8.37673254 80.08775215 -11.21958931 80.07519691 -14.0625 80.0625 C-15.98502491 80.05748711 -17.90755104 80.05292384 -19.83007812 80.04882812 C-24.55341549 80.03777741 -29.27669458 80.02050183 -34 80 C-31.6680188 72.5939628 -28.77443342 65.52614432 -25.703125 58.3984375 C-25.19126648 57.20376862 -24.67940796 56.00909973 -24.15203857 54.77822876 C-23.0717352 52.25758035 -21.98897165 49.7380086 -20.90429688 47.21923828 C-19.53445618 44.03795952 -18.16988808 40.85445398 -16.80711746 37.67014122 C-15.48332352 34.57848256 -14.15559714 31.48851868 -12.828125 28.3984375 C-12.34869446 27.27915863 -11.86926392 26.15987976 -11.37530518 25.00668335 C-7.74379308 16.5822254 -3.88439393 8.32370128 0 0 Z " fill="#0F274A" transform="translate(848,1062)"/>
<path d="M0 0 C-0.63969727 0.47598633 -1.27939453 0.95197266 -1.93847656 1.44238281 C-6.2149747 5.014998 -10.06600617 8.96405147 -13.984375 12.921875 C-14.84057434 13.78186096 -15.69677368 14.64184692 -16.57891846 15.52789307 C-19.30503367 18.26619982 -22.02789537 21.00770671 -24.75 23.75 C-28.34614152 27.3726069 -31.94548534 30.99198635 -35.546875 34.609375 C-36.79522125 35.87016876 -36.79522125 35.87016876 -38.06878662 37.15643311 C-38.83338196 37.92433167 -39.59797729 38.69223022 -40.38574219 39.48339844 C-41.06127136 40.16416443 -41.73680054 40.84493042 -42.43280029 41.54632568 C-44 43 -44 43 -45 43 C-45.33 38.71 -45.66 34.42 -46 30 C-51.18347323 35.16087593 -56.36481338 40.32387142 -61.54243279 45.49062061 C-63.94672307 47.88969361 -66.3519342 50.28782798 -68.75927734 52.68383789 C-71.52718481 55.4387961 -74.29103858 58.19780082 -77.0546875 60.95703125 C-77.9193161 61.81649857 -78.7839447 62.67596588 -79.67477417 63.56147766 C-80.47545319 64.36208115 -81.2761322 65.16268463 -82.10107422 65.98754883 C-83.16030594 67.04344963 -83.16030594 67.04344963 -84.24093628 68.12068176 C-86.17267146 70.08175545 -86.17267146 70.08175545 -88 73 C-88.58468551 52.49269701 -85.88900011 34.01618778 -71.5 18.375 C-52.02894917 -1.7868418 -26.60498593 -7.08341939 0 0 Z " fill="#6EBEFF" transform="translate(804,486)"/>
<path d="M0 0 C1 2 1 2 0.42675781 4.15136719 C0.10545898 5.02438477 -0.21583984 5.89740234 -0.546875 6.796875 C-0.8975 7.7559375 -1.248125 8.715 -1.609375 9.703125 C-1.98578125 10.70859375 -2.3621875 11.7140625 -2.75 12.75 C-3.1109375 13.74 -3.471875 14.73 -3.84375 15.75 C-5.65311072 20.65362977 -7.52471526 25.39409042 -10 30 C-10.99 29.67 -11.98 29.34 -13 29 C-13.33 28.01 -13.66 27.02 -14 26 C-12.68 26.33 -11.36 26.66 -10 27 C-9.443125 25.2984375 -9.443125 25.2984375 -8.875 23.5625 C-7.24953159 18.69390953 -5.56947862 13.84491241 -3.875 9 C-3.60929199 8.23373291 -3.34358398 7.46746582 -3.06982422 6.67797852 C-1.11579699 1.11579699 -1.11579699 1.11579699 0 0 Z " fill="#F68578" transform="translate(863,1278)"/>
</svg>
